<?xml version="1.0" standalone="no"?>
<!DOCTYPE svg PUBLIC "-//W3C//DTD SVG 20010904//EN"
 "http://www.w3.org/TR/2001/REC-SVG-20010904/DTD/svg10.dtd">
<svg version="1.0" xmlns="http://www.w3.org/2000/svg"
 width="700.000000pt" height="700.000000pt" viewBox="0 0 700.000000 700.000000"
 preserveAspectRatio="xMidYMid meet">
<metadata>
Created by potrace 1.14, written by Peter Selinger 2001-2017
</metadata>
<g transform="translate(0.000000,700.000000) scale(0.100000,-0.100000)"
fill="#000000" stroke="none">
<path d="M0 3500 l0 -3500 3500 0 3500 0 0 3500 0 3500 -3500 0 -3500 0 0
-3500z m2665 1420 c177 -17 368 -71 522 -149 175 -88 371 -253 491 -413 36
-48 66 -88 67 -88 1 0 71 120 156 266 85 146 169 282 188 301 104 107 286 112
396 10 35 -33 179 -274 696 -1167 359 -619 663 -1149 676 -1178 34 -73 34
-171 0 -245 -72 -159 -256 -225 -411 -148 -33 16 -73 43 -88 58 -14 15 -227
374 -473 798 -245 423 -456 780 -468 793 -38 41 -75 55 -138 50 -41 -3 -66
-11 -90 -29 -23 -18 -169 -261 -519 -865 l-487 -839 -889 0 -889 0 -60 24
c-82 33 -173 124 -206 206 l-24 60 0 1135 0 1135 23 57 c45 111 157 204 272
227 64 12 1122 13 1255 1z m1724 -2017 c13 -10 108 -164 212 -343 162 -279
189 -331 189 -366 0 -27 -7 -51 -22 -69 -43 -54 -48 -55 -548 -55 -268 0 -460
4 -460 9 0 5 105 190 234 412 195 337 239 406 267 422 40 21 91 17 128 -10z"/>
<path d="M1685 4348 c-3 -7 -4 -393 -3 -858 l3 -845 420 -3 c434 -3 567 4 670
35 l59 18 273 470 c150 259 273 480 273 491 0 40 -41 158 -86 244 -108 209
-308 366 -549 432 -76 20 -104 22 -567 26 -400 3 -489 1 -493 -10z m1136 -584
c109 -50 173 -149 173 -263 0 -115 -59 -207 -162 -258 l-57 -28 -317 -3 -318
-4 0 292 0 292 318 -4 c297 -3 320 -4 363 -24z"/>
</g>
</svg>
