<svg xmlns="http://www.w3.org/2000/svg" version="1.1" xmlns:xlink="http://www.w3.org/1999/xlink" xmlns:svgjs="http://svgjs.com/svgjs" width="512" height="512"><svg xmlns="http://www.w3.org/2000/svg" viewBox="0 0 512 512"><defs><style>.cls-1{fill:#18171c;}.cls-2{fill:#7fd1b9;}.cls-3{fill:#f0e9db;}</style></defs><g id="SvgjsG1002" data-name="Layer 2"><g id="SvgjsG1001" data-name="Layer 2"><rect class="cls-1" width="512" height="512"></rect></g><g id="SvgjsG1000" data-name="Layer 1"><path class="cls-2" d="M341.68,360.39H274.29L308,302.25a9,9,0,0,1,15.59,0l25.88,44.61A9,9,0,0,1,341.68,360.39Z"></path><path class="cls-2" d="M408.06,360.39a22.51,22.51,0,0,1-19.48-11.22L324.93,239.42a12.69,12.69,0,0,0-21.94,0l-13,22.41L242.57,343.6l-9.74,16.79H180.76l26.39-45.5,40.35-69.57,26.33-45.4,21.82-37.61a21.17,21.17,0,0,1,36.63,0l95.27,164.26A22.52,22.52,0,0,1,408.06,360.39Z"></path><path class="cls-3" d="M273.83,199.92l-26.33,45.4a62.66,62.66,0,0,0-61.73-51.95H123.13V318.63h62.64a62.33,62.33,0,0,0,21.38-3.74l-26.39,45.5H108.41a27,27,0,0,1-27-27V178.64a27,27,0,0,1,27-27h77.36a104.41,104.41,0,0,1,88.06,48.31Z"></path><path class="cls-3" d="M156.54,235.12H198.3A20.88,20.88,0,0,1,219.17,256v0a20.88,20.88,0,0,1-20.88,20.88H156.54a0,0,0,0,1,0,0V235.12A0,0,0,0,1,156.54,235.12Z"></path></g></g></svg><style>@media (prefers-color-scheme: light) { :root { filter: none; } }
</style></svg>